<svg width="26" height="18" viewBox="0 0 26 18" fill="none" xmlns="http://www.w3.org/2000/svg">
<mask id="mask0_293_2151" style="mask-type:alpha" maskUnits="userSpaceOnUse" x="0" y="0" width="26" height="18">
<path d="M18.643 9C20.4183 9 21.8574 7.56093 21.8574 5.78565C21.8574 4.01038 20.4183 2.5713 18.643 2.5713C16.8678 2.5713 15.4287 4.01038 15.4287 5.78565C15.4234 7.55559 16.8535 8.99466 18.6226 9C18.6297 9 18.6359 9 18.643 9ZM9 7.7139C11.1302 7.7139 12.8574 5.98666 12.8574 3.85651C12.8574 1.72636 11.1302 0 9 0C6.86985 0 5.1426 1.72725 5.1426 3.8574C5.13371 5.97865 6.84672 7.7059 8.96798 7.71479C8.97865 7.71479 8.98933 7.71479 8.99911 7.71479L9 7.7139ZM18.643 11.5713C16.295 11.5713 11.5713 12.7542 11.5713 15.1067V18H25.7139V15.1067C25.7139 12.7542 20.9964 11.5713 18.643 11.5713ZM9 10.2852C6.00356 10.2852 0 11.7892 0 14.7857V18H9V15.1067C9 14.0145 9.42514 12.0978 12.048 10.6463C11.0465 10.4275 10.0255 10.3066 9 10.2852Z" fill="#E6E6E6"/>
</mask>
<g mask="url(#mask0_293_2151)">
<rect x="-10" y="-14" width="45" height="45" fill="#E6E6E6"/>
<rect x="-10" y="-14" width="45" height="45" fill="#E6E6E6"/>
</g>
</svg>
