<svg width="244" height="144" viewBox="0 0 244 144" fill="none" xmlns="http://www.w3.org/2000/svg">
<path d="M115.42 44.5991H119.53C121.1 44.6591 122.67 44.3591 124.12 43.7291C125.31 43.1891 126.34 42.3491 127.12 41.3091C127.86 40.2791 128.4 39.1191 128.71 37.8991C129.36 35.4591 129.36 32.8891 128.71 30.4491C128.41 29.2391 127.87 28.0891 127.12 27.0891C126.34 26.0291 125.34 25.1491 124.19 24.5091C122.76 23.7591 121.16 23.3791 119.54 23.3991H115.43V13.2591C115.43 9.3491 114.37 6.3491 111.92 4.2691C109.62 2.2291 106.64 1.1191 103.56 1.1491C100.5 1.0991 97.5301 2.1891 95.2301 4.2191C92.8201 6.2591 91.7801 9.2791 91.7801 13.2691V68.2491H115.43V44.5991H115.42Z" fill="url(#paint0_linear_8_101)"/>
<path d="M22.5501 62.0591C25.6701 64.1791 29.1501 65.7091 32.8201 66.5791C40.9401 68.5391 49.4101 68.5391 57.5301 66.5791C61.2001 65.7091 64.6801 64.1791 67.8001 62.0591C70.6801 60.0191 73.0301 57.3091 74.6501 54.1691C76.4101 50.6191 77.2601 46.6891 77.1001 42.7291V35.9991C77.2201 33.2891 76.5401 30.5991 75.1301 28.2791H75.2501C78.3501 28.2791 80.5901 27.3691 81.9801 25.6591C83.3401 23.9991 84.0801 21.9091 84.0601 19.7591C84.0601 17.5891 83.3001 15.4891 81.9201 13.8091C80.4901 11.9391 78.2301 11.1591 75.1301 11.1591H57.5201C57.3501 7.0791 56.1501 4.8891 53.9101 2.9691C51.4601 0.959101 48.3501 -0.0908986 45.1701 0.00910143C41.9601 -0.110899 38.8301 0.959101 36.3601 3.0191C34.1601 4.9391 33.0201 7.0791 32.9401 11.1591H15.2101C12.1901 11.1591 9.9301 11.9191 8.4201 13.7991C6.9701 15.4791 6.1701 17.6091 6.1601 19.8291C6.1501 21.9891 6.9601 24.0691 8.4201 25.6591C10.1501 27.4591 12.6001 28.3891 15.0901 28.2091C14.3901 29.3791 13.8201 30.6291 13.4001 31.9291C12.9601 33.2491 12.7201 34.6291 12.6901 36.0191V42.7491C12.6201 46.7291 13.5601 50.6691 15.4201 54.1891C17.1401 57.3391 19.5901 60.0391 22.5501 62.0791V62.0591ZM35.5201 36.0091C35.5201 33.0791 36.3701 30.8691 38.4501 29.4091C42.5201 26.4691 48.0101 26.4691 52.0701 29.4091C54.1501 30.9391 55.2901 33.4391 55.0801 36.0091V41.9991C55.2701 44.5791 54.1101 47.0791 52.0201 48.5991C50.0201 50.0491 47.6101 50.8191 45.1401 50.7991C42.7201 50.8091 40.3701 50.0391 38.4301 48.5991C36.3501 47.1291 35.5101 44.9291 35.5101 41.9991V36.0091H35.5201Z" fill="url(#paint1_linear_8_101)"/>
<path d="M166.13 49.7091C167.99 48.7991 169.6 47.4591 170.84 45.7891C172.08 43.6891 172.66 41.2591 172.49 38.8191V24.3891C172.49 22.7591 171.63 21.9491 169.92 21.9391H162.58V37.5891C162.68 41.4591 161.97 45.3191 160.5 48.8991C159.25 51.8291 157.45 54.4891 155.18 56.7291C153.11 58.7491 150.66 60.3291 147.96 61.3791C145.44 62.3691 142.78 62.9691 140.08 63.1491C137.84 63.3091 135.59 62.8391 133.6 61.8091C131.55 60.8491 130.12 58.9091 129.81 56.6691C128.83 51.2091 130.99 47.6191 136.29 45.9091C136.96 45.6991 137.62 45.4391 138.25 45.1191C139.02 44.7191 139.74 44.2291 140.39 43.6491C141.1 43.0091 141.68 42.2491 142.1 41.3891C142.57 40.3991 142.8 39.3091 142.77 38.2091V24.6291C142.77 22.9991 142.08 22.1791 140.69 22.1791H139.22C135.96 22.1791 133.61 21.2591 132.19 19.4291C129.36 15.9191 129.33 10.9191 132.13 7.3791C133.52 5.5891 135.88 4.6891 139.22 4.6891H177.62C180.13 4.6291 182.64 4.8991 185.08 5.4891C186.83 5.9091 188.44 6.7891 189.73 8.0591C190.91 9.3091 191.73 10.8491 192.12 12.5191C192.6 14.6491 192.83 16.8191 192.79 18.9991V25.9691H199.15V11.0491C198.95 8.2891 199.98 5.5791 201.96 3.6491C203.8 1.9891 206.21 1.0891 208.69 1.1391C211.27 1.0991 213.77 2.0191 215.72 3.7091C217.78 5.5691 218.89 8.2691 218.72 11.0491V68.3291H199.14V44.9291H192.29C191.39 51.6191 189.21 56.6891 185.75 60.1591C182.35 63.5891 177.97 65.8791 173.21 66.6991C170.91 67.1091 168.54 66.9691 166.3 66.2691C164.19 65.6891 162.46 64.1791 161.59 62.1691C160.54 59.9891 160.37 57.4991 161.1 55.1991C161.97 52.7691 163.77 50.7791 166.12 49.6991L166.13 49.7091ZM223.37 11.0591C223.18 8.2591 224.28 5.5291 226.37 3.6591C228.29 2.0191 230.75 1.1191 233.28 1.1491C235.9 1.1191 238.43 2.0291 240.44 3.7191C242.57 5.5391 243.72 8.2591 243.56 11.0591V68.3391H223.38V11.0591H223.37Z" fill="url(#paint2_linear_8_101)"/>
<path d="M241.88 81.1791C241.55 79.0791 240.64 77.1091 239.25 75.4991C237.79 74.0791 235.94 73.1291 233.93 72.7791C231.65 72.1591 228.67 72.3191 225 72.3191H33.5601C29.8901 72.3191 26.9101 72.1591 24.6301 72.7791C22.6101 73.1691 20.7601 74.1491 19.3101 75.6091C17.9301 77.2091 17.0201 79.1591 16.6801 81.2391C16.1701 84.9491 15.9301 88.6891 15.9401 92.4391V121.059C15.9201 124.859 16.1601 128.659 16.6701 132.429C17.0001 134.529 17.9001 136.489 19.2701 138.119C20.6601 139.819 22.5101 141.089 24.6001 141.759C27.5001 142.669 30.5101 143.179 33.5401 143.259H224.99C228.03 143.179 231.04 142.669 233.93 141.759C236.01 141.119 237.87 139.889 239.26 138.219C240.63 136.579 241.53 134.589 241.86 132.479C242.37 128.689 242.61 124.879 242.59 121.059V92.4391C242.61 88.6791 242.36 84.9191 241.86 81.1891L241.88 81.1791ZM210.06 89.5791C213.44 89.5791 216.17 92.3191 216.17 95.6891C216.17 99.0691 213.43 101.799 210.06 101.799C206.68 101.799 203.95 99.0591 203.95 95.6891C203.95 92.3091 206.69 89.5791 210.06 89.5791ZM66.4901 109.009C66.4901 111.259 64.6601 113.899 62.4101 113.899H54.2601V121.239C54.2601 123.489 52.4301 126.129 50.1801 126.129H46.1101C43.8601 126.129 42.0301 123.489 42.0301 121.239V113.899H33.8701C31.6201 113.899 29.7901 111.259 29.7901 109.009V104.929C29.7901 102.679 31.6201 101.669 33.8701 101.669H42.0201V92.6991C42.0201 90.4491 43.8501 89.4391 46.1001 89.4391H50.1801C52.4301 89.4391 54.2601 90.4491 54.2601 92.6991V101.669H62.4101C64.6601 101.669 66.4901 102.679 66.4901 104.929V109.009ZM177.38 127.249C177.46 128.339 177.32 129.429 176.95 130.459C176.52 131.309 175.65 131.849 174.69 131.839H83.8501C82.8901 131.849 82.0201 131.319 81.5901 130.459C81.2301 129.429 81.0801 128.329 81.1701 127.249V85.9891C81.0801 85.1691 81.2301 84.3391 81.5901 83.5991C81.9601 82.9491 82.6301 82.9191 83.8501 82.9191H174.69C175.91 82.9191 176.58 82.9491 176.95 83.5991C177.31 84.3391 177.46 85.1691 177.38 85.9891V127.249ZM197.83 114.039C194.45 114.039 191.72 111.299 191.72 107.929C191.72 104.549 194.46 101.819 197.83 101.819C201.21 101.819 203.94 104.559 203.94 107.929C203.94 111.309 201.2 114.039 197.83 114.039ZM210.06 126.269C206.68 126.269 203.95 123.529 203.95 120.159C203.95 116.779 206.69 114.049 210.06 114.049C213.44 114.049 216.17 116.789 216.17 120.159C216.17 123.539 213.43 126.269 210.06 126.279V126.269ZM222.29 114.039C218.91 114.039 216.18 111.299 216.18 107.929C216.18 104.549 218.92 101.819 222.29 101.819C225.67 101.819 228.4 104.559 228.4 107.929C228.4 111.309 225.66 114.039 222.29 114.039Z" fill="url(#paint3_linear_8_101)"/>
<path d="M65.2701 80.0691H17.2401V136.719H65.2701V80.0691Z" fill="url(#paint4_linear_8_101)"/>
<path d="M229.06 80.0691H181.03V136.719H229.06V80.0691Z" fill="url(#paint5_linear_8_101)"/>
<path d="M109.26 44.5991H113.37C114.94 44.6591 116.51 44.3591 117.96 43.7291C119.15 43.1891 120.18 42.3491 120.96 41.3091C121.7 40.2791 122.24 39.1191 122.55 37.8991C123.2 35.4591 123.2 32.8891 122.55 30.4491C122.25 29.2391 121.71 28.0891 120.96 27.0891C120.18 26.0291 119.18 25.1491 118.03 24.5091C116.6 23.7591 115 23.3791 113.38 23.3991H109.27V13.2591C109.27 9.3491 108.21 6.3491 105.76 4.2691C103.46 2.2291 100.48 1.1191 97.4001 1.1491C94.3401 1.0991 91.3701 2.1891 89.0701 4.2191C86.6601 6.2591 85.6201 9.2791 85.6201 13.2691V68.2491H109.27V44.5991H109.26Z" fill="white"/>
<path d="M16.3901 62.0591C19.5101 64.1791 22.9901 65.7091 26.6601 66.5791C34.7801 68.5391 43.2501 68.5391 51.3701 66.5791C55.0401 65.7091 58.5201 64.1791 61.6401 62.0591C64.5201 60.0191 66.8701 57.3091 68.4901 54.1691C70.2501 50.6191 71.1001 46.6891 70.9401 42.7291V35.9991C71.0601 33.2891 70.3801 30.5991 68.9701 28.2791H69.0901C72.1901 28.2791 74.4301 27.3691 75.8201 25.6591C77.1801 23.9991 77.9201 21.9091 77.9001 19.7591C77.9001 17.5891 77.1401 15.4891 75.7601 13.8091C74.3301 11.9391 72.0701 11.1591 68.9701 11.1591H51.3601C51.1901 7.0791 49.9901 4.8891 47.7501 2.9691C45.3001 0.959101 42.1901 -0.0908986 39.0101 0.00910143C35.8001 -0.110899 32.6701 0.959101 30.2001 3.0191C28.0001 4.9391 26.8601 7.0791 26.7801 11.1591H9.05009C6.03009 11.1591 3.77009 11.9191 2.26009 13.7991C0.820091 15.4791 0.0100915 17.6191 9.1502e-05 19.8291C-0.0099085 21.9891 0.800092 24.0691 2.26009 25.6591C3.99009 27.4591 6.44009 28.3891 8.93009 28.2091C8.23009 29.3791 7.66009 30.6291 7.24009 31.9291C6.80009 33.2491 6.56009 34.6291 6.53009 36.0191V42.7491C6.46009 46.7291 7.40009 50.6691 9.26009 54.1891C10.9801 57.3391 13.4301 60.0391 16.3901 62.0791V62.0591ZM29.3601 36.0091C29.3601 33.0791 30.2101 30.8691 32.2901 29.4091C36.3601 26.4691 41.8501 26.4691 45.9101 29.4091C47.9901 30.9391 49.1301 33.4391 48.9201 36.0091V41.9991C49.1101 44.5791 47.9501 47.0791 45.8601 48.5991C43.8601 50.0491 41.4501 50.8191 38.9801 50.7991C36.5601 50.8091 34.2101 50.0391 32.2701 48.5991C30.1901 47.1291 29.3501 44.9291 29.3501 41.9991V36.0091H29.3601Z" fill="white"/>
<path d="M159.97 49.7091C161.83 48.7991 163.44 47.4591 164.68 45.7891C165.92 43.6891 166.5 41.2591 166.33 38.8191V24.3891C166.33 22.7591 165.47 21.9491 163.76 21.9391H156.42V37.5991C156.52 41.4691 155.81 45.3291 154.34 48.9091C153.09 51.8391 151.29 54.4991 149.02 56.7391C146.95 58.7591 144.5 60.3391 141.8 61.3891C139.28 62.3791 136.62 62.9791 133.92 63.1591C131.68 63.3191 129.43 62.8491 127.44 61.8191C125.39 60.8591 123.96 58.9191 123.65 56.6791C122.67 51.2191 124.83 47.6291 130.13 45.9191C130.8 45.7091 131.46 45.4491 132.09 45.1291C132.86 44.7291 133.58 44.2391 134.23 43.6591C134.94 43.0191 135.52 42.2591 135.94 41.3991C136.41 40.4091 136.64 39.3191 136.61 38.2191V24.6391C136.61 23.0091 135.92 22.1891 134.53 22.1891H133.06C129.8 22.1891 127.45 21.2691 126.03 19.4391C123.2 15.9291 123.17 10.9291 125.97 7.3891C127.36 5.5991 129.72 4.6991 133.06 4.6991H171.46C173.97 4.6391 176.48 4.9091 178.92 5.4991C180.67 5.9191 182.28 6.7991 183.57 8.0691C184.75 9.3191 185.57 10.8591 185.96 12.5291C186.44 14.6591 186.67 16.8291 186.63 19.0091V25.9791H192.99V11.0591C192.79 8.2991 193.82 5.5891 195.8 3.6591C197.64 1.9991 200.05 1.0991 202.53 1.1491C205.11 1.1091 207.61 2.0291 209.56 3.7191C211.62 5.5791 212.73 8.2791 212.56 11.0591V68.3391H192.98V44.9391H186.13C185.23 51.6291 183.05 56.6991 179.59 60.1691C176.19 63.5991 171.81 65.8891 167.05 66.7091C164.75 67.1191 162.38 66.9791 160.14 66.2791C158.03 65.6991 156.3 64.1891 155.43 62.1791C154.38 59.9991 154.21 57.5091 154.94 55.2091C155.81 52.7791 157.61 50.7891 159.96 49.7091H159.97ZM217.21 11.0591C217.02 8.2591 218.12 5.5291 220.21 3.6591C222.13 2.0191 224.59 1.1191 227.12 1.1491C229.74 1.1191 232.27 2.0291 234.28 3.7191C236.41 5.5391 237.56 8.2591 237.4 11.0591V68.3391H217.22V11.0591H217.21Z" fill="white"/>
<path d="M235.72 81.1791C235.39 79.0791 234.48 77.1091 233.09 75.4991C231.63 74.0791 229.78 73.1291 227.77 72.7791C225.49 72.1591 222.51 72.3191 218.84 72.3191H27.4001C23.7301 72.3191 20.7501 72.1591 18.4701 72.7791C16.4501 73.1691 14.6001 74.1491 13.1501 75.6091C11.7701 77.2091 10.8601 79.1591 10.5201 81.2391C10.0101 84.9491 9.77009 88.6891 9.78009 92.4391V121.059C9.76009 124.859 10.0001 128.659 10.5101 132.429C10.8401 134.529 11.7401 136.489 13.1101 138.119C14.5001 139.819 16.3501 141.089 18.4401 141.759C21.3401 142.669 24.3501 143.179 27.3801 143.259H218.83C221.87 143.179 224.88 142.669 227.77 141.759C229.85 141.119 231.71 139.889 233.1 138.219C234.47 136.579 235.37 134.589 235.7 132.479C236.21 128.689 236.45 124.879 236.43 121.059V92.4391C236.45 88.6791 236.2 84.9191 235.7 81.1891L235.72 81.1791ZM203.9 89.5791C207.28 89.5791 210.01 92.3191 210.01 95.6891C210.01 99.0691 207.27 101.799 203.9 101.799C200.52 101.799 197.79 99.0591 197.79 95.6891C197.79 92.3091 200.53 89.5791 203.9 89.5791ZM60.3301 109.009C60.3301 111.259 58.5001 113.899 56.2501 113.899H48.1001V121.239C48.1001 123.489 46.2701 126.129 44.0201 126.129H39.9501C37.7001 126.129 35.8701 123.489 35.8701 121.239V113.899H27.7101C25.4601 113.899 23.6301 111.259 23.6301 109.009V104.929C23.6301 102.679 25.4601 101.669 27.7101 101.669H35.8601V92.6991C35.8601 90.4491 37.6901 89.4391 39.9401 89.4391H44.0201C46.2701 89.4391 48.1001 90.4491 48.1001 92.6991V101.669H56.2501C58.5001 101.669 60.3301 102.679 60.3301 104.929V109.009ZM171.22 127.249C171.3 128.339 171.16 129.429 170.79 130.459C170.36 131.309 169.49 131.849 168.53 131.839H77.6901C76.7301 131.849 75.8601 131.319 75.4301 130.459C75.0701 129.429 74.9201 128.329 75.0101 127.249V85.9891C74.9201 85.1691 75.0701 84.3391 75.4301 83.5991C75.8001 82.9491 76.4701 82.9191 77.6901 82.9191H168.53C169.75 82.9191 170.42 82.9491 170.79 83.5991C171.15 84.3391 171.3 85.1691 171.22 85.9891V127.249ZM191.67 114.039C188.29 114.039 185.56 111.299 185.56 107.929C185.56 104.549 188.3 101.819 191.67 101.819C195.05 101.819 197.78 104.559 197.78 107.929C197.78 111.309 195.04 114.039 191.67 114.039ZM203.9 126.269C200.52 126.269 197.79 123.529 197.79 120.159C197.79 116.779 200.53 114.049 203.9 114.049C207.28 114.049 210.01 116.789 210.01 120.159C210.01 123.539 207.27 126.269 203.9 126.279V126.269ZM216.13 114.039C212.75 114.039 210.02 111.299 210.02 107.929C210.02 104.549 212.76 101.819 216.13 101.819C219.51 101.819 222.24 104.559 222.24 107.929C222.24 111.309 219.5 114.039 216.13 114.039Z" fill="white"/>
<defs>
<linearGradient id="paint0_linear_8_101" x1="162.89" y1="89.9923" x2="5.84084" y2="47.4719" gradientUnits="userSpaceOnUse">
<stop stop-color="#F83600"/>
<stop offset="1" stop-color="#FE8C00"/>
</linearGradient>
<linearGradient id="paint1_linear_8_101" x1="150.944" y1="79.2966" x2="-117.838" y2="-69.7911" gradientUnits="userSpaceOnUse">
<stop stop-color="#F83600"/>
<stop offset="1" stop-color="#FE8C00"/>
</linearGradient>
<linearGradient id="paint2_linear_8_101" x1="345.532" y1="80.4221" x2="38.6364" y2="-171.819" gradientUnits="userSpaceOnUse">
<stop stop-color="#F83600"/>
<stop offset="1" stop-color="#FE8C00"/>
</linearGradient>
<linearGradient id="paint3_linear_8_101" x1="446.724" y1="152.182" x2="146.83" y2="-312.912" gradientUnits="userSpaceOnUse">
<stop stop-color="#F83600"/>
<stop offset="1" stop-color="#FE8C00"/>
</linearGradient>
<linearGradient id="paint4_linear_8_101" x1="32.1601" y1="85.2891" x2="60.0788" y2="136.503" gradientUnits="userSpaceOnUse">
<stop stop-color="#FE8C00"/>
<stop offset="1" stop-color="#F83600"/>
</linearGradient>
<linearGradient id="paint5_linear_8_101" x1="195.971" y1="29126.9" x2="225.812" y2="140.037" gradientUnits="userSpaceOnUse">
<stop stop-color="#FE8C00"/>
<stop offset="1" stop-color="#F83600"/>
</linearGradient>
</defs>
</svg>
