<svg width="33" height="18" viewBox="0 0 33 18" fill="none" xmlns="http://www.w3.org/2000/svg">
<mask id="mask0_293_2139" style="mask-type:alpha" maskUnits="userSpaceOnUse" x="0" y="0" width="33" height="18">
<path d="M29.9996 0H2.99962C1.34572 0.00684845 0.00684845 1.34572 0 2.99962V15.0004C0.00684845 16.6543 1.34572 17.9932 2.99962 18H29.9985C31.6524 17.9932 32.9913 16.6543 32.9981 15.0004V2.99962C32.9913 1.34572 31.6524 0.00684845 29.9985 0H29.9996ZM15.0004 10.4998H10.4998V14.9992H7.50019V10.4998H2.99962V7.50019H7.49905V2.99962H10.4987V7.49905H14.9981V10.4987L15.0004 10.4998ZM21.7438 13.4994C20.5008 13.4994 19.4941 12.4927 19.4941 11.2497C19.4941 10.0067 20.5008 9 21.7438 9C22.9868 9 23.9935 10.0067 23.9935 11.2497C23.9947 12.4904 22.9902 13.4983 21.7495 13.4994H21.7438ZM27.7442 9C26.5012 8.99658 25.4968 7.98757 25.5002 6.74458C25.5036 5.50159 26.5126 4.49715 27.7556 4.50057C28.9929 4.504 29.9951 5.50615 29.9996 6.74344C30.0053 7.98415 29.0032 8.99429 27.7625 9C27.7579 9 27.7533 9 27.7499 9H27.7442Z" fill="#E6E6E6"/>
</mask>
<g mask="url(#mask0_293_2139)">
<rect x="-6" y="-14" width="45" height="45" fill="#E6E6E6"/>
<rect x="-6" y="-14" width="45" height="45" fill="#E6E6E6"/>
</g>
</svg>
