<svg width="36" height="36" viewBox="0 0 36 36" fill="none" xmlns="http://www.w3.org/2000/svg">
<path d="M0 15C0 6.71573 6.71573 0 15 0H21C29.2843 0 36 6.71573 36 15V21C36 29.2843 29.2843 36 21 36H15C6.71573 36 0 29.2843 0 21V15Z" fill="#FEE500"/>
<path d="M18.8222 6C11.7478 6 5.99991 10.65 5.99991 16.35C5.99991 19.95 8.35803 23.1 11.7478 25.05L10.8635 30L16.3167 26.4C17.0536 26.55 17.9379 26.55 18.6748 26.55C25.7492 26.55 31.4971 21.9 31.4971 16.2C31.6445 10.65 25.8966 6 18.8222 6Z" fill="#2D1617"/>
</svg>
