<svg width="36" height="36" viewBox="0 0 36 36" fill="none" xmlns="http://www.w3.org/2000/svg">
<path fill-rule="evenodd" clip-rule="evenodd" d="M12.4716 11.1088L12.4782 11.0923C12.4782 11.0923 12.4698 11.0831 12.4596 11.0727C12.4494 11.0623 12.4278 11.0684 12.4278 11.0684L12.4032 11.04H12.36H12.3168L12.2922 11.0684C12.2922 11.0684 12.2706 11.0623 12.2604 11.0727C12.2502 11.0831 12.2418 11.0923 12.2418 11.0923L12.2484 11.1088L12.24 11.1332C12.24 11.1332 12.2647 11.2286 12.2676 11.2402C12.2733 11.2631 12.2772 11.272 12.2934 11.2836C12.3096 11.2952 12.339 11.3154 12.3438 11.3185C12.3486 11.3215 12.3546 11.3267 12.36 11.3267C12.3654 11.3267 12.3714 11.3215 12.3762 11.3185C12.381 11.3154 12.4104 11.2952 12.4266 11.2836C12.4428 11.272 12.4467 11.2631 12.4524 11.2402C12.4553 11.2286 12.48 11.1332 12.48 11.1332L12.4716 11.1088Z" fill="url(#paint0_linear_9_275)"/>
<path fill-rule="evenodd" clip-rule="evenodd" d="M12.36 11.2184C12.3616 11.2184 12.3722 11.2222 12.3806 11.2267C12.3891 11.2311 12.3952 11.2343 12.3972 11.2355C12.3991 11.2368 12.3979 11.2391 12.3962 11.2404C12.3944 11.2417 12.3704 11.2606 12.3681 11.2627C12.3657 11.2648 12.3623 11.2683 12.36 11.2683C12.3577 11.2683 12.3543 11.2648 12.3519 11.2627C12.3496 11.2606 12.3256 11.2417 12.3238 11.2404C12.3221 11.2391 12.3209 11.2368 12.3228 11.2355C12.3248 11.2343 12.3309 11.2311 12.3394 11.2267C12.3478 11.2222 12.3584 11.2184 12.36 11.2184ZM12.3601 11.0837C12.3609 11.0837 12.3655 11.084 12.372 11.0862C12.3792 11.0886 12.387 11.0917 12.3906 11.0917C12.3942 11.0917 12.4209 11.0865 12.4209 11.0865C12.4209 11.0865 12.4525 11.1254 12.4525 11.1338C12.4525 11.1421 12.4486 11.1443 12.4446 11.1486C12.4406 11.153 12.4231 11.1719 12.4208 11.1743C12.4186 11.1767 12.4139 11.1804 12.4167 11.187C12.4194 11.1937 12.4235 11.2021 12.419 11.2106C12.4144 11.2192 12.4067 11.2249 12.4018 11.224C12.3968 11.223 12.3852 11.2168 12.3809 11.214C12.3766 11.2112 12.3631 11.1998 12.3631 11.1954C12.3631 11.1911 12.3771 11.1833 12.3797 11.1815C12.3823 11.1797 12.3941 11.1728 12.3943 11.1701C12.3946 11.1674 12.3945 11.1666 12.391 11.16C12.3875 11.1533 12.3812 11.1444 12.3823 11.1385C12.3833 11.1326 12.3934 11.1295 12.4007 11.1267C12.4079 11.1239 12.4218 11.1187 12.4235 11.1179C12.4252 11.117 12.4248 11.1163 12.4195 11.1158C12.4143 11.1152 12.3994 11.1132 12.3926 11.1151C12.3859 11.1171 12.3744 11.12 12.3735 11.1215C12.3725 11.123 12.3717 11.1231 12.3727 11.1284C12.3736 11.1337 12.3786 11.1592 12.379 11.1638C12.3795 11.1683 12.3804 11.1713 12.3756 11.1724C12.3708 11.1735 12.3628 11.1755 12.36 11.1755C12.3572 11.1755 12.3491 11.1735 12.3443 11.1724C12.3396 11.1713 12.3405 11.1683 12.341 11.1638C12.3414 11.1592 12.3464 11.1337 12.3473 11.1284C12.3483 11.1231 12.3475 11.123 12.3465 11.1215C12.3456 11.12 12.3341 11.1171 12.3274 11.1151C12.3206 11.1132 12.3057 11.1152 12.3005 11.1158C12.2952 11.1163 12.2947 11.117 12.2965 11.1179C12.2982 11.1187 12.3121 11.1239 12.3193 11.1267C12.3266 11.1295 12.3367 11.1326 12.3377 11.1385C12.3388 11.1444 12.3325 11.1533 12.329 11.16C12.3255 11.1666 12.3254 11.1674 12.3257 11.1701C12.3259 11.1728 12.3377 11.1797 12.3403 11.1815C12.3429 11.1833 12.3569 11.1911 12.3569 11.1954C12.3569 11.1998 12.3433 11.2112 12.3391 11.214C12.3348 11.2168 12.3232 11.223 12.3182 11.224C12.3133 11.2249 12.3055 11.2192 12.301 11.2106C12.2965 11.2021 12.3006 11.1937 12.3033 11.187C12.3061 11.1804 12.3014 11.1767 12.2992 11.1743C12.2969 11.1719 12.2794 11.153 12.2754 11.1486C12.2714 11.1443 12.2675 11.1421 12.2675 11.1338C12.2675 11.1254 12.2991 11.0865 12.2991 11.0865C12.2991 11.0865 12.3258 11.0917 12.3294 11.0917C12.333 11.0917 12.3408 11.0886 12.348 11.0862C12.3545 11.084 12.3591 11.0837 12.3599 11.0837H12.3601Z" fill="white"/>
<path d="M12.4278 11.0684L12.4032 11.04H12.36H12.3168L12.2922 11.0684C12.2922 11.0684 12.2706 11.0623 12.2604 11.0727C12.2604 11.0727 12.2892 11.0701 12.2991 11.0865C12.2991 11.0865 12.3258 11.0917 12.3294 11.0917C12.333 11.0917 12.3408 11.0886 12.348 11.0862C12.3552 11.0837 12.36 11.0837 12.36 11.0837C12.36 11.0837 12.3648 11.0837 12.372 11.0862C12.3792 11.0886 12.387 11.0917 12.3906 11.0917C12.3942 11.0917 12.4209 11.0865 12.4209 11.0865C12.4308 11.0701 12.4596 11.0727 12.4596 11.0727C12.4494 11.0623 12.4278 11.0684 12.4278 11.0684Z" fill="url(#paint1_linear_9_275)"/>
<mask id="mask0_9_275" style="mask-type:luminance" maskUnits="userSpaceOnUse" x="5" y="4" width="26" height="28">
<path d="M30.54 15.6H18.24V20.7H25.32C24.66 23.94 21.9 25.8 18.24 25.8C13.92 25.8 10.44 22.32 10.44 18C10.44 13.68 13.92 10.2 18.24 10.2C20.1 10.2 21.78 10.86 23.1 11.94L26.94 8.09999C24.6 6.05999 21.6 4.79999 18.24 4.79999C10.92 4.79999 5.04001 10.68 5.04001 18C5.04001 25.32 10.92 31.2 18.24 31.2C24.84 31.2 30.84 26.4 30.84 18C30.84 17.22 30.72 16.38 30.54 15.6Z" fill="white"/>
</mask>
<g mask="url(#mask0_9_275)">
<path d="M3.84 25.8V10.2L14.04 18L3.84 25.8Z" fill="#FBBC05"/>
</g>
<mask id="mask1_9_275" style="mask-type:luminance" maskUnits="userSpaceOnUse" x="5" y="4" width="26" height="28">
<path d="M30.54 15.6H18.24V20.7H25.32C24.66 23.94 21.9 25.8 18.24 25.8C13.92 25.8 10.44 22.32 10.44 18C10.44 13.68 13.92 10.2 18.24 10.2C20.1 10.2 21.78 10.86 23.1 11.94L26.94 8.09999C24.6 6.05999 21.6 4.79999 18.24 4.79999C10.92 4.79999 5.04001 10.68 5.04001 18C5.04001 25.32 10.92 31.2 18.24 31.2C24.84 31.2 30.84 26.4 30.84 18C30.84 17.22 30.72 16.38 30.54 15.6Z" fill="white"/>
</mask>
<g mask="url(#mask1_9_275)">
<path d="M3.84 10.2L14.04 18L18.24 14.34L32.64 12V3.59998H3.84V10.2Z" fill="#EA4335"/>
</g>
<mask id="mask2_9_275" style="mask-type:luminance" maskUnits="userSpaceOnUse" x="5" y="4" width="26" height="28">
<path d="M30.54 15.6H18.24V20.7H25.32C24.66 23.94 21.9 25.8 18.24 25.8C13.92 25.8 10.44 22.32 10.44 18C10.44 13.68 13.92 10.2 18.24 10.2C20.1 10.2 21.78 10.86 23.1 11.94L26.94 8.09999C24.6 6.05999 21.6 4.79999 18.24 4.79999C10.92 4.79999 5.04001 10.68 5.04001 18C5.04001 25.32 10.92 31.2 18.24 31.2C24.84 31.2 30.84 26.4 30.84 18C30.84 17.22 30.72 16.38 30.54 15.6Z" fill="white"/>
</mask>
<g mask="url(#mask2_9_275)">
<path d="M3.84 25.8L21.84 12L26.58 12.6L32.64 3.59998V32.4H3.84V25.8Z" fill="#34A853"/>
</g>
<mask id="mask3_9_275" style="mask-type:luminance" maskUnits="userSpaceOnUse" x="5" y="4" width="26" height="28">
<path d="M30.54 15.6H18.24V20.7H25.32C24.66 23.94 21.9 25.8 18.24 25.8C13.92 25.8 10.44 22.32 10.44 18C10.44 13.68 13.92 10.2 18.24 10.2C20.1 10.2 21.78 10.86 23.1 11.94L26.94 8.09999C24.6 6.05999 21.6 4.79999 18.24 4.79999C10.92 4.79999 5.04001 10.68 5.04001 18C5.04001 25.32 10.92 31.2 18.24 31.2C24.84 31.2 30.84 26.4 30.84 18C30.84 17.22 30.72 16.38 30.54 15.6Z" fill="white"/>
</mask>
<g mask="url(#mask3_9_275)">
<path d="M32.64 32.4L14.04 18L11.64 16.2L32.64 10.2V32.4Z" fill="#4285F4"/>
</g>
<defs>
<linearGradient id="paint0_linear_9_275" x1="12.24" y1="25.578" x2="36.24" y2="25.578" gradientUnits="userSpaceOnUse">
<stop stop-color="#FF5500"/>
<stop offset="0.409877" stop-color="#FF5500"/>
<stop offset="0.581981" stop-color="#FF2000"/>
<stop offset="1" stop-color="#FF2000"/>
</linearGradient>
<linearGradient id="paint1_linear_9_275" x1="12.6883" y1="13.6596" x2="32.1804" y2="13.6596" gradientUnits="userSpaceOnUse">
<stop stop-color="#FF452A"/>
<stop offset="1" stop-color="#FF2000"/>
</linearGradient>
</defs>
</svg>
