<svg width="18" height="18" viewBox="0 0 18 18" fill="none" xmlns="http://www.w3.org/2000/svg">
<mask id="mask0_293_2157" style="mask-type:alpha" maskUnits="userSpaceOnUse" x="0" y="0" width="18" height="18">
<path d="M15.4381 9.87971C15.4775 9.58728 15.4987 9.29243 15.5011 8.99758C15.4987 8.70273 15.4775 8.40787 15.4381 8.11544L17.3368 6.63089C17.5076 6.49043 17.553 6.24764 17.4446 6.0545L15.6446 2.94251C15.5344 2.75179 15.3025 2.66824 15.0961 2.74453L12.8553 3.64422C12.3897 3.28338 11.8775 2.98671 11.3332 2.76209L10.993 0.380867C10.9639 0.160485 10.7744 -0.00298587 10.5522 4.13631e-05H6.95342C6.73122 -0.00298587 6.54232 0.160485 6.51266 0.380867L6.16998 2.76269C5.62689 2.99095 5.11589 3.28701 4.64788 3.64483L2.40894 2.74453C2.20249 2.66219 1.96636 2.74695 1.86041 2.94251L0.062233 6.05632C-0.0515909 6.24825 -0.00557698 6.49466 0.170002 6.63271L2.06868 8.11726C2.02933 8.40969 2.00814 8.70454 2.00572 8.9994C2.00874 9.29425 2.02933 9.5891 2.06868 9.88153L0.170002 11.3649C-0.000733397 11.5053 -0.0461419 11.7481 0.062233 11.9413L1.86222 15.0545C1.97242 15.2452 2.2043 15.3287 2.41076 15.2524L4.65152 14.3528C5.1171 14.7136 5.62931 15.0103 6.17361 15.2349L6.51508 17.6191C6.54414 17.8395 6.73365 18.003 6.95584 18H10.5546C10.7768 18.003 10.9657 17.8395 10.9954 17.6191L11.3369 15.2349C11.8799 15.0066 12.3909 14.7106 12.8589 14.3528L15.0997 15.2524C15.3062 15.3348 15.5423 15.25 15.6482 15.0545L17.4482 11.9413C17.5566 11.7481 17.5112 11.5059 17.3405 11.3649L15.4388 9.88032L15.4381 9.87971ZM8.75281 12.1471C7.01336 12.1471 5.60388 10.737 5.60388 8.99818C5.60388 7.25934 7.01397 5.84926 8.75281 5.84926C10.4917 5.84926 11.9017 7.25934 11.9017 8.99818C11.9005 10.737 10.4917 12.1465 8.75281 12.1483V12.1471Z" fill="#E6E6E6"/>
</mask>
<g mask="url(#mask0_293_2157)">
<rect x="-14" y="-13" width="45" height="45" fill="#E6E6E6"/>
<rect x="-14" y="-13" width="45" height="45" fill="#E6E6E6"/>
</g>
</svg>
